<?xml version="1.0" standalone="no"?>
<!DOCTYPE svg PUBLIC "-//W3C//DTD SVG 20010904//EN"
 "http://www.w3.org/TR/2001/REC-SVG-20010904/DTD/svg10.dtd">
<svg version="1.0" xmlns="http://www.w3.org/2000/svg"
 width="512.000000pt" height="512.000000pt" viewBox="0 0 512.000000 512.000000"
 preserveAspectRatio="xMidYMid meet">

<g transform="translate(0.000000,512.000000) scale(0.100000,-0.100000)"
fill="#000000" stroke="none">
<path d="M1129 5110 c-378 -28 -610 -126 -818 -345 -160 -169 -247 -359 -288
-629 -15 -99 -17 -262 -20 -1466 -5 -1408 -1 -1587 36 -1779 86 -442 410 -766
850 -851 53 -10 159 -24 236 -29 187 -14 2668 -15 2865 0 374 26 583 112 795
324 211 211 298 424 324 795 14 195 14 2665 0 2860 -24 346 -110 571 -292 766
-182 194 -385 296 -681 341 -99 15 -257 17 -1506 19 -767 1 -1443 -2 -1501 -6z
m764 -1631 c52 -14 112 -71 133 -124 64 -168 -108 -330 -271 -256 -141 64
-165 253 -43 344 60 45 113 55 181 36z m1451 0 c72 -20 146 -119 146 -195 0
-115 -112 -213 -231 -202 -170 17 -239 232 -111 351 53 50 123 66 196 46z
m-1811 -360 c91 -25 155 -124 144 -222 -20 -166 -224 -237 -343 -119 -84 83
-83 207 1 288 58 56 124 74 198 53z m720 0 c81 -22 147 -110 147 -197 0 -185
-229 -270 -354 -132 -61 68 -69 152 -23 234 26 46 58 72 113 91 48 17 68 18
117 4z m770 -21 c93 -52 130 -173 81 -269 -19 -37 -76 -85 -119 -99 -164 -54
-319 118 -246 275 52 113 175 153 284 93z m674 20 c117 -29 184 -165 134 -273
-68 -148 -258 -170 -352 -40 -77 107 -27 266 97 310 49 18 64 18 121 3z
m-1800 -363 c171 -51 192 -288 33 -373 -60 -31 -150 -28 -203 8 -152 104 -111
327 68 371 44 10 47 10 102 -6z m1485 -16 c44 -22 71 -56 94 -114 31 -81 -5
-181 -83 -235 -53 -36 -143 -39 -203 -8 -123 66 -146 230 -46 327 62 60 155
72 238 30z m-2190 -45 c68 -35 94 -124 59 -196 -55 -114 -216 -116 -271 -3
-25 52 -25 85 -1 134 24 45 39 59 88 77 40 14 81 10 125 -12z m1443 -3 c51
-29 77 -78 73 -137 -7 -87 -68 -144 -156 -144 -77 0 -146 74 -144 156 1 119
121 184 227 125z m1450 0 c68 -37 93 -149 47 -210 -73 -99 -211 -91 -262 14
-24 50 -25 86 -4 130 40 84 134 113 219 66z m-2517 -368 c61 -46 78 -130 39
-197 -54 -94 -178 -102 -250 -16 -91 107 13 269 152 239 19 -4 46 -16 59 -26z
m713 4 c47 -31 71 -81 66 -138 -12 -148 -189 -189 -281 -67 -43 59 -18 164 50
209 42 27 121 26 165 -4z m721 6 c45 -27 72 -78 71 -136 -2 -141 -191 -202
-273 -87 -50 70 -32 170 39 217 42 29 119 31 163 6z m724 -3 c18 -12 42 -40
54 -66 83 -171 -173 -303 -267 -138 -41 71 -21 155 47 202 43 29 119 30 166 2z
m-2907 -51 c50 -47 50 -111 -1 -154 -39 -33 -87 -33 -127 1 -75 63 -34 173 65
174 27 0 47 -7 63 -21z m3607 3 c54 -43 55 -112 3 -156 -40 -34 -88 -34 -127
-1 -51 43 -51 107 -1 154 28 26 95 28 125 3z m-3255 -355 c58 -45 61 -116 8
-161 -42 -36 -89 -35 -131 3 -27 24 -33 36 -33 71 0 35 6 47 33 71 35 31 93
39 123 16z m1460 -16 c33 -34 38 -75 14 -121 -47 -91 -185 -53 -185 50 0 33 6
48 29 71 23 23 38 29 71 29 33 0 48 -6 71 -29z m1441 0 c27 -24 33 -36 33 -71
0 -35 -6 -47 -33 -71 -42 -37 -89 -39 -130 -4 -35 29 -47 70 -33 107 27 72
105 91 163 39z"/>
</g>
</svg>
